<?xml version="1.0" encoding="UTF-8"?>
<svg version="1.1" viewBox="0 0 713.36 175.87" xmlns="http://www.w3.org/2000/svg" xmlns:cc="http://creativecommons.org/ns#" xmlns:dc="http://purl.org/dc/elements/1.1/" xmlns:rdf="http://www.w3.org/1999/02/22-rdf-syntax-ns#">
<metadata>
<rdf:RDF>
<cc:Work rdf:about="">
<dc:format>image/svg+xml</dc:format>
<dc:type rdf:resource="http://purl.org/dc/dcmitype/StillImage"/>
<dc:title/>
</cc:Work>
</rdf:RDF>
</metadata>
<path d="m530.38 2.0938v38.25c-5.315-7.2412-12.865-10.781-22.656-10.781-9.3725 0-17.504 3.8375-24.219 11.375-6.575 7.5375-9.9062 16.868-9.9062 27.656 0 10.936 3.3312 20.244 9.9062 27.781 6.715 7.5387 14.846 11.219 24.219 11.219 9.7912 0 17.341-3.5388 22.656-10.781v8.7188h18.062v-103.44h-18.062zm-19.312 45.656c5.595 0 10.208 1.915 13.844 5.9062 3.6375 3.8425 5.4688 8.8775 5.4688 14.938s-1.8312 11.072-5.4688 15.062c-3.6362 3.8425-8.2488 5.7812-13.844 5.7812-5.4562 0-10.192-1.9388-13.969-5.7812-3.6362-3.99-5.4688-9.0025-5.4688-15.062s1.8325-11.095 5.4688-14.938c3.7762-3.9912 8.3725-5.9062 13.969-5.9062z" fill="#9ccbf9"/>
<path d="m598.22 29.562c-10.351 0-19.146 3.8375-26.281 11.375s-10.656 16.719-10.656 27.656c0 11.085 3.5212 20.244 10.656 27.781 7.135 7.5388 15.79 11.219 26.281 11.219 10.492 0 19.178-3.68 26.312-11.219 7.135-7.5375 10.781-16.844 10.781-27.781 0-10.789-3.6462-20.119-10.781-27.656s-15.96-11.375-26.312-11.375zm0 18.625c5.4562 0 9.925 1.9375 13.562 5.7812 3.6362 3.8425 5.4688 8.7138 5.4688 14.625s-1.8325 10.781-5.4688 14.625c-3.6375 3.8425-8.1062 5.75-13.562 5.75-5.455 0-9.9262-1.9075-13.562-5.75-3.4988-3.99-5.3125-8.86-5.3125-14.625 0-5.7638 1.8138-10.635 5.3125-14.625 3.6362-3.8438 8.1075-5.7812 13.562-5.7812z" fill="#d8d1a2"/>
<path d="m427.56 29.562c-10.351 0-19.179 3.8375-26.312 11.375-7.1338 7.5375-10.625 16.719-10.625 27.656 0 11.085 3.4912 20.244 10.625 27.781 7.1337 7.5388 15.821 11.219 26.312 11.219 10.492 0 19.146-3.68 26.281-11.219 7.135-7.5375 10.781-16.844 10.781-27.781 0-10.789-3.6462-20.119-10.781-27.656s-15.929-11.375-26.281-11.375zm0 18.625c5.4562 0 9.925 1.9375 13.562 5.7812 3.6375 3.8425 5.4688 8.7138 5.4688 14.625s-1.8312 10.781-5.4688 14.625c-3.6375 3.8425-8.1062 5.75-13.562 5.75-5.455 0-9.925-1.9075-13.562-5.75-3.4975-3.99-5.3438-8.86-5.3438-14.625 0-5.7638 1.8462-10.635 5.3438-14.625 3.6375-3.8438 8.1075-5.7812 13.562-5.7812z" fill="#f68ca1"/>
<path d="m224.72 29.562c-9.3725 0-17.348 3.8375-24.062 11.375-6.5738 7.5375-9.9375 16.868-9.9375 27.656 0 10.936 3.3638 20.244 9.9375 27.781 6.715 7.5387 14.69 11.219 24.062 11.219 9.7912 0 17.326-3.5388 22.781-10.781v8.7188h18.062v-73.906h-18.062v8.7188c-5.455-7.2412-12.99-10.781-22.781-10.781zm3.3438 18.188c5.595 0 10.208 1.915 13.844 5.9062 3.7762 3.8425 5.5938 8.8775 5.5938 14.938s-1.8175 11.072-5.5938 15.062c-3.6362 3.8425-8.2488 5.7812-13.844 5.7812-5.5962 0-10.208-1.9388-13.844-5.7812-3.6375-3.99-5.4688-9.0025-5.4688-15.062s1.8312-11.095 5.4688-14.938c3.6362-3.9912 8.2475-5.9062 13.844-5.9062z" fill="#f68ca1"/>
<path d="m160.55 105.43c-2.4125 12.406-21.598 25.982-43.634 28.614-11.491 1.3725-22.804 2.6312-34.868 2.0788-19.73-0.90375-35.298-4.71-35.298-4.71 0 1.9212 0.11875 3.75 0.355 5.46 2.565 19.47 19.308 20.638 35.166 21.181 16.006 0.5475 30.258-3.9475 30.258-3.9475l0.65875 14.472s-11.196 6.0112-31.14 7.1162c-10.999 0.605-24.654-0.27625-40.56-4.485-34.495-9.1312-40.428-45.901-41.335-83.211-0.2775-11.078-0.10625-21.524-0.10625-30.259 0-38.152 24.996-49.335 24.996-49.335 12.604-5.7888 34.231-8.2225 56.715-8.4062h0.5525c22.484 0.18375 44.125 2.6175 56.729 8.4062 0 0 24.996 11.182 24.996 49.335 0 0 0.3125 28.148-3.4862 47.69" fill="#1b1dd5"/>
<path d="m34.658 48.494c0-5.5538 4.5025-10.055 10.055-10.055 5.5538 0 10.055 4.5012 10.055 10.055 0 5.5525-4.5012 10.055-10.055 10.055-5.5525 0-10.055-4.5025-10.055-10.055" fill="#fff"/>
<path d="m178.86 60.7v46.195h-18.301v-44.838c0-9.4525-3.9775-14.249-11.932-14.249-8.7938 0-13.202 5.6912-13.202 16.944v24.541h-18.194v-24.541c0-11.252-4.4088-16.944-13.202-16.944-7.955 0-11.932 4.7962-11.932 14.249v44.838h-18.301v-46.195c0-9.4412 2.4038-16.944 7.2325-22.495 4.98-5.55 11.501-8.395 19.595-8.395 9.3662 0 16.459 3.5988 21.146 10.799l4.56 7.6425 4.5588-7.6425c4.6888-7.2 11.78-10.799 21.148-10.799 8.0938 0 14.614 2.845 19.594 8.395 4.8288 5.5512 7.2325 13.054 7.2325 22.495" fill="#fbc47a"/>
<path d="m326.27 67.259c5.315 3.99 7.9738 9.6062 7.8338 16.7 0 7.5388-2.6588 13.45-8.1138 17.589-5.4562 3.9912-12.03 6.06-20.004 6.06-14.409 0-24.201-5.9125-29.378-17.589l15.669-9.31c2.0975 6.3538 6.7138 9.6062 13.709 9.6062 6.4338 0 9.6525-2.07 9.6525-6.3562 0-3.1038-4.1975-5.9112-12.73-8.1275-3.2188-0.8875-5.8762-1.7738-7.9738-2.5138-2.9375-1.1812-5.455-2.5125-7.5538-4.1375-5.1762-3.99-7.8338-9.3125-7.8338-16.11 0-7.2425 2.5175-13.006 7.5538-17.145 5.1762-4.2862 11.47-6.355 19.025-6.355 12.03 0 20.844 5.1725 26.578 15.666l-15.386 8.8675c-2.2388-5.0238-6.015-7.5362-11.191-7.5362-5.4562 0-8.1138 2.0688-8.1138 6.0588 0 3.1038 4.1962 5.9112 12.73 8.1288 6.575 1.4775 11.75 3.695 15.528 6.5038" fill="#9ccbf9"/>
<path d="m383.63 49.966h-15.808v30.742c0 3.695 1.4 5.9112 4.0575 6.945 1.9588 0.74 5.875 0.8875 11.75 0.59125v17.294c-12.169 1.4775-20.983 0.295-26.159-3.6962-5.175-3.8425-7.6938-10.936-7.6938-21.134v-30.742h-12.17v-18.328h12.17v-14.928l18.045-5.7638v20.691h15.808v18.328z" fill="#fbc47a"/>
<path d="m713.36 60.164v45.374h-18.046v-43.009c0-4.8775-1.2588-8.5725-3.7762-11.38-2.3788-2.5125-5.7362-3.8438-10.072-3.8438-10.212 0-15.388 6.06-15.388 18.328v39.905h-18.046v-73.899h18.046v8.2762c4.3362-6.9462 11.19-10.345 20.844-10.345 7.6938 0 13.989 2.66 18.885 8.1288 5.035 5.4688 7.5538 12.859 7.5538 22.465" fill="#d8d1a2"/>
</svg>
